<mxfile host="Electron" agent="Mozilla/5.0 (Windows NT 10.0; Win64; x64) AppleWebKit/537.36 (KHTML, like Gecko) draw.io/26.2.15 Chrome/134.0.6998.205 Electron/35.2.1 Safari/537.36" version="26.2.15" pages="2">
  <diagram name="Use Case Diagram" id="xOyTkN_rwRYirkF_gSdX">
    <mxGraphModel dx="2066" dy="1201" grid="1" gridSize="10" guides="1" tooltips="1" connect="1" arrows="1" fold="1" page="1" pageScale="1" pageWidth="850" pageHeight="1100" math="0" shadow="0">
      <root>
        <mxCell id="0" />
        <mxCell id="1" parent="0" />
        <mxCell id="XddIDYPcrH-Y5ov6MuFb-1" value="Mengisi Form Rental" style="ellipse;whiteSpace=wrap;html=1;" vertex="1" parent="1">
          <mxGeometry x="270" y="210" width="120" height="60" as="geometry" />
        </mxCell>
        <mxCell id="XddIDYPcrH-Y5ov6MuFb-2" value="Memilih Tipe PS" style="ellipse;whiteSpace=wrap;html=1;" vertex="1" parent="1">
          <mxGeometry x="110" y="140" width="120" height="60" as="geometry" />
        </mxCell>
        <mxCell id="XddIDYPcrH-Y5ov6MuFb-3" value="Memilih Tipe TV" style="ellipse;whiteSpace=wrap;html=1;" vertex="1" parent="1">
          <mxGeometry x="220" y="80" width="120" height="60" as="geometry" />
        </mxCell>
        <mxCell id="XddIDYPcrH-Y5ov6MuFb-4" value="Memilih Durasi Sewa" style="ellipse;whiteSpace=wrap;html=1;" vertex="1" parent="1">
          <mxGeometry x="460" y="150" width="120" height="60" as="geometry" />
        </mxCell>
        <mxCell id="XddIDYPcrH-Y5ov6MuFb-5" value="Memilih Metode&lt;div&gt;Antar / Jemput&lt;/div&gt;" style="ellipse;whiteSpace=wrap;html=1;" vertex="1" parent="1">
          <mxGeometry x="360" y="80" width="120" height="60" as="geometry" />
        </mxCell>
        <mxCell id="XddIDYPcrH-Y5ov6MuFb-13" style="rounded=0;orthogonalLoop=1;jettySize=auto;html=1;exitX=0.5;exitY=0.5;exitDx=0;exitDy=0;exitPerimeter=0;entryX=0;entryY=0.5;entryDx=0;entryDy=0;endArrow=none;startFill=0;" edge="1" parent="1" source="XddIDYPcrH-Y5ov6MuFb-7" target="XddIDYPcrH-Y5ov6MuFb-1">
          <mxGeometry relative="1" as="geometry" />
        </mxCell>
        <mxCell id="XddIDYPcrH-Y5ov6MuFb-14" style="rounded=0;orthogonalLoop=1;jettySize=auto;html=1;exitX=0.5;exitY=0.5;exitDx=0;exitDy=0;exitPerimeter=0;endArrow=none;startFill=0;" edge="1" parent="1" source="XddIDYPcrH-Y5ov6MuFb-7" target="XddIDYPcrH-Y5ov6MuFb-8">
          <mxGeometry relative="1" as="geometry" />
        </mxCell>
        <mxCell id="XddIDYPcrH-Y5ov6MuFb-7" value="Pelanggan" style="shape=umlActor;verticalLabelPosition=bottom;verticalAlign=top;html=1;outlineConnect=0;" vertex="1" parent="1">
          <mxGeometry x="30" y="380" width="30" height="60" as="geometry" />
        </mxCell>
        <mxCell id="XddIDYPcrH-Y5ov6MuFb-8" value="Melihat Struk&lt;div&gt;Pemesanan&lt;/div&gt;" style="ellipse;whiteSpace=wrap;html=1;" vertex="1" parent="1">
          <mxGeometry x="270" y="480" width="120" height="60" as="geometry" />
        </mxCell>
        <mxCell id="XddIDYPcrH-Y5ov6MuFb-9" value="Melihat Daftar Rental Masuk" style="ellipse;whiteSpace=wrap;html=1;" vertex="1" parent="1">
          <mxGeometry x="270" y="300" width="120" height="60" as="geometry" />
        </mxCell>
        <mxCell id="XddIDYPcrH-Y5ov6MuFb-10" value="Mencetak Detail Rental" style="ellipse;whiteSpace=wrap;html=1;" vertex="1" parent="1">
          <mxGeometry x="270" y="390" width="120" height="60" as="geometry" />
        </mxCell>
        <mxCell id="XddIDYPcrH-Y5ov6MuFb-11" value="Mengubah Daftar Harga" style="ellipse;whiteSpace=wrap;html=1;" vertex="1" parent="1">
          <mxGeometry x="270" y="570" width="120" height="60" as="geometry" />
        </mxCell>
        <mxCell id="XddIDYPcrH-Y5ov6MuFb-12" value="Menandai Rental Selesai" style="ellipse;whiteSpace=wrap;html=1;" vertex="1" parent="1">
          <mxGeometry x="270" y="660" width="120" height="60" as="geometry" />
        </mxCell>
        <mxCell id="XddIDYPcrH-Y5ov6MuFb-15" value="Admin" style="shape=umlActor;verticalLabelPosition=bottom;verticalAlign=top;html=1;outlineConnect=0;" vertex="1" parent="1">
          <mxGeometry x="630" y="380" width="30" height="60" as="geometry" />
        </mxCell>
        <mxCell id="XddIDYPcrH-Y5ov6MuFb-16" value="&amp;lt;&amp;lt;include&amp;gt;&amp;gt;" style="html=1;verticalAlign=bottom;labelBackgroundColor=none;endArrow=open;endFill=0;dashed=1;rounded=0;entryX=1;entryY=1;entryDx=0;entryDy=0;exitX=0;exitY=0;exitDx=0;exitDy=0;" edge="1" parent="1" source="XddIDYPcrH-Y5ov6MuFb-1" target="XddIDYPcrH-Y5ov6MuFb-2">
          <mxGeometry width="160" relative="1" as="geometry">
            <mxPoint x="420" y="510" as="sourcePoint" />
            <mxPoint x="580" y="510" as="targetPoint" />
          </mxGeometry>
        </mxCell>
        <mxCell id="XddIDYPcrH-Y5ov6MuFb-17" value="&amp;lt;&amp;lt;include&amp;gt;&amp;gt;" style="html=1;verticalAlign=bottom;labelBackgroundColor=none;endArrow=open;endFill=0;dashed=1;rounded=0;entryX=0.5;entryY=1;entryDx=0;entryDy=0;exitX=0.5;exitY=0;exitDx=0;exitDy=0;" edge="1" parent="1" source="XddIDYPcrH-Y5ov6MuFb-1" target="XddIDYPcrH-Y5ov6MuFb-3">
          <mxGeometry width="160" relative="1" as="geometry">
            <mxPoint x="298" y="229" as="sourcePoint" />
            <mxPoint x="222" y="201" as="targetPoint" />
          </mxGeometry>
        </mxCell>
        <mxCell id="XddIDYPcrH-Y5ov6MuFb-18" value="&amp;lt;&amp;lt;include&amp;gt;&amp;gt;" style="html=1;verticalAlign=bottom;labelBackgroundColor=none;endArrow=open;endFill=0;dashed=1;rounded=0;entryX=0;entryY=0.5;entryDx=0;entryDy=0;exitX=1;exitY=0;exitDx=0;exitDy=0;" edge="1" parent="1" source="XddIDYPcrH-Y5ov6MuFb-1" target="XddIDYPcrH-Y5ov6MuFb-4">
          <mxGeometry width="160" relative="1" as="geometry">
            <mxPoint x="340" y="220" as="sourcePoint" />
            <mxPoint x="290" y="150" as="targetPoint" />
          </mxGeometry>
        </mxCell>
        <mxCell id="XddIDYPcrH-Y5ov6MuFb-19" value="&amp;lt;&amp;lt;include&amp;gt;&amp;gt;" style="html=1;verticalAlign=bottom;labelBackgroundColor=none;endArrow=open;endFill=0;dashed=1;rounded=0;entryX=0.5;entryY=1;entryDx=0;entryDy=0;exitX=0.5;exitY=0;exitDx=0;exitDy=0;" edge="1" parent="1" source="XddIDYPcrH-Y5ov6MuFb-1" target="XddIDYPcrH-Y5ov6MuFb-5">
          <mxGeometry width="160" relative="1" as="geometry">
            <mxPoint x="340" y="220" as="sourcePoint" />
            <mxPoint x="290" y="150" as="targetPoint" />
          </mxGeometry>
        </mxCell>
        <mxCell id="XddIDYPcrH-Y5ov6MuFb-21" style="rounded=0;orthogonalLoop=1;jettySize=auto;html=1;exitX=1;exitY=0.5;exitDx=0;exitDy=0;endArrow=none;startFill=0;entryX=0.5;entryY=0.5;entryDx=0;entryDy=0;entryPerimeter=0;" edge="1" parent="1" source="XddIDYPcrH-Y5ov6MuFb-9" target="XddIDYPcrH-Y5ov6MuFb-15">
          <mxGeometry relative="1" as="geometry">
            <mxPoint x="400" y="250" as="sourcePoint" />
            <mxPoint x="635" y="420" as="targetPoint" />
          </mxGeometry>
        </mxCell>
        <mxCell id="XddIDYPcrH-Y5ov6MuFb-22" style="rounded=0;orthogonalLoop=1;jettySize=auto;html=1;exitX=1;exitY=0.5;exitDx=0;exitDy=0;endArrow=none;startFill=0;entryX=0.5;entryY=0.5;entryDx=0;entryDy=0;entryPerimeter=0;" edge="1" parent="1" source="XddIDYPcrH-Y5ov6MuFb-10" target="XddIDYPcrH-Y5ov6MuFb-15">
          <mxGeometry relative="1" as="geometry">
            <mxPoint x="400" y="340" as="sourcePoint" />
            <mxPoint x="635" y="420" as="targetPoint" />
          </mxGeometry>
        </mxCell>
        <mxCell id="XddIDYPcrH-Y5ov6MuFb-23" style="rounded=0;orthogonalLoop=1;jettySize=auto;html=1;exitX=1;exitY=0.5;exitDx=0;exitDy=0;endArrow=none;startFill=0;entryX=0.5;entryY=0.5;entryDx=0;entryDy=0;entryPerimeter=0;" edge="1" parent="1" source="XddIDYPcrH-Y5ov6MuFb-11" target="XddIDYPcrH-Y5ov6MuFb-15">
          <mxGeometry relative="1" as="geometry">
            <mxPoint x="400" y="430" as="sourcePoint" />
            <mxPoint x="635" y="420" as="targetPoint" />
          </mxGeometry>
        </mxCell>
        <mxCell id="XddIDYPcrH-Y5ov6MuFb-24" style="rounded=0;orthogonalLoop=1;jettySize=auto;html=1;exitX=1;exitY=0.5;exitDx=0;exitDy=0;endArrow=none;startFill=0;entryX=0.5;entryY=0.5;entryDx=0;entryDy=0;entryPerimeter=0;" edge="1" parent="1" source="XddIDYPcrH-Y5ov6MuFb-12" target="XddIDYPcrH-Y5ov6MuFb-15">
          <mxGeometry relative="1" as="geometry">
            <mxPoint x="400" y="610" as="sourcePoint" />
            <mxPoint x="635" y="420" as="targetPoint" />
          </mxGeometry>
        </mxCell>
        <mxCell id="XddIDYPcrH-Y5ov6MuFb-25" value="&lt;i&gt;Simple Use Case&lt;/i&gt;" style="swimlane;whiteSpace=wrap;html=1;startSize=23;" vertex="1" parent="1">
          <mxGeometry x="90" y="40" width="510" height="710" as="geometry" />
        </mxCell>
      </root>
    </mxGraphModel>
  </diagram>
  <diagram id="zvoZS6hSlHPzsCZgMPH9" name="Page-2">
    <mxGraphModel dx="1722" dy="1001" grid="1" gridSize="10" guides="1" tooltips="1" connect="1" arrows="1" fold="1" page="1" pageScale="1" pageWidth="850" pageHeight="1100" math="0" shadow="0">
      <root>
        <mxCell id="0" />
        <mxCell id="1" parent="0" />
        <mxCell id="7cS6nVsMlmjqD7m7EnYL-1" value="Rental" style="swimlane;fontStyle=1;align=center;verticalAlign=top;childLayout=stackLayout;horizontal=1;startSize=27.2;horizontalStack=0;resizeParent=1;resizeParentMax=0;resizeLast=0;collapsible=0;marginBottom=0;fontSize=14;" vertex="1" parent="1">
          <mxGeometry x="175" y="20" width="295" height="548.2" as="geometry" />
        </mxCell>
        <mxCell id="7cS6nVsMlmjqD7m7EnYL-2" value="+int id" style="text;strokeColor=none;fillColor=none;align=left;verticalAlign=top;spacingLeft=4;spacingRight=4;overflow=hidden;rotatable=0;points=[[0,0.5],[1,0.5]];portConstraint=eastwest;fontSize=14;" vertex="1" parent="7cS6nVsMlmjqD7m7EnYL-1">
          <mxGeometry y="27.2" width="295" height="27" as="geometry" />
        </mxCell>
        <mxCell id="7cS6nVsMlmjqD7m7EnYL-3" value="+string name" style="text;strokeColor=none;fillColor=none;align=left;verticalAlign=top;spacingLeft=4;spacingRight=4;overflow=hidden;rotatable=0;points=[[0,0.5],[1,0.5]];portConstraint=eastwest;fontSize=14;" vertex="1" parent="7cS6nVsMlmjqD7m7EnYL-1">
          <mxGeometry y="54.2" width="295" height="27" as="geometry" />
        </mxCell>
        <mxCell id="7cS6nVsMlmjqD7m7EnYL-4" value="+string phone" style="text;strokeColor=none;fillColor=none;align=left;verticalAlign=top;spacingLeft=4;spacingRight=4;overflow=hidden;rotatable=0;points=[[0,0.5],[1,0.5]];portConstraint=eastwest;fontSize=14;" vertex="1" parent="7cS6nVsMlmjqD7m7EnYL-1">
          <mxGeometry y="81.2" width="295" height="27" as="geometry" />
        </mxCell>
        <mxCell id="7cS6nVsMlmjqD7m7EnYL-5" value="+text address" style="text;strokeColor=none;fillColor=none;align=left;verticalAlign=top;spacingLeft=4;spacingRight=4;overflow=hidden;rotatable=0;points=[[0,0.5],[1,0.5]];portConstraint=eastwest;fontSize=14;" vertex="1" parent="7cS6nVsMlmjqD7m7EnYL-1">
          <mxGeometry y="108.2" width="295" height="27" as="geometry" />
        </mxCell>
        <mxCell id="7cS6nVsMlmjqD7m7EnYL-6" value="+string ig" style="text;strokeColor=none;fillColor=none;align=left;verticalAlign=top;spacingLeft=4;spacingRight=4;overflow=hidden;rotatable=0;points=[[0,0.5],[1,0.5]];portConstraint=eastwest;fontSize=14;" vertex="1" parent="7cS6nVsMlmjqD7m7EnYL-1">
          <mxGeometry y="135.2" width="295" height="27" as="geometry" />
        </mxCell>
        <mxCell id="7cS6nVsMlmjqD7m7EnYL-7" value="+string fb" style="text;strokeColor=none;fillColor=none;align=left;verticalAlign=top;spacingLeft=4;spacingRight=4;overflow=hidden;rotatable=0;points=[[0,0.5],[1,0.5]];portConstraint=eastwest;fontSize=14;" vertex="1" parent="7cS6nVsMlmjqD7m7EnYL-1">
          <mxGeometry y="162.2" width="295" height="27" as="geometry" />
        </mxCell>
        <mxCell id="7cS6nVsMlmjqD7m7EnYL-8" value="+string tiktok" style="text;strokeColor=none;fillColor=none;align=left;verticalAlign=top;spacingLeft=4;spacingRight=4;overflow=hidden;rotatable=0;points=[[0,0.5],[1,0.5]];portConstraint=eastwest;fontSize=14;" vertex="1" parent="7cS6nVsMlmjqD7m7EnYL-1">
          <mxGeometry y="189.2" width="295" height="27" as="geometry" />
        </mxCell>
        <mxCell id="7cS6nVsMlmjqD7m7EnYL-9" value="+text special_request" style="text;strokeColor=none;fillColor=none;align=left;verticalAlign=top;spacingLeft=4;spacingRight=4;overflow=hidden;rotatable=0;points=[[0,0.5],[1,0.5]];portConstraint=eastwest;fontSize=14;" vertex="1" parent="7cS6nVsMlmjqD7m7EnYL-1">
          <mxGeometry y="216.2" width="295" height="27" as="geometry" />
        </mxCell>
        <mxCell id="7cS6nVsMlmjqD7m7EnYL-10" value="+date rental_date" style="text;strokeColor=none;fillColor=none;align=left;verticalAlign=top;spacingLeft=4;spacingRight=4;overflow=hidden;rotatable=0;points=[[0,0.5],[1,0.5]];portConstraint=eastwest;fontSize=14;" vertex="1" parent="7cS6nVsMlmjqD7m7EnYL-1">
          <mxGeometry y="243.2" width="295" height="27" as="geometry" />
        </mxCell>
        <mxCell id="7cS6nVsMlmjqD7m7EnYL-11" value="+date return_date" style="text;strokeColor=none;fillColor=none;align=left;verticalAlign=top;spacingLeft=4;spacingRight=4;overflow=hidden;rotatable=0;points=[[0,0.5],[1,0.5]];portConstraint=eastwest;fontSize=14;" vertex="1" parent="7cS6nVsMlmjqD7m7EnYL-1">
          <mxGeometry y="270.2" width="295" height="27" as="geometry" />
        </mxCell>
        <mxCell id="7cS6nVsMlmjqD7m7EnYL-12" value="+date delivery_date" style="text;strokeColor=none;fillColor=none;align=left;verticalAlign=top;spacingLeft=4;spacingRight=4;overflow=hidden;rotatable=0;points=[[0,0.5],[1,0.5]];portConstraint=eastwest;fontSize=14;" vertex="1" parent="7cS6nVsMlmjqD7m7EnYL-1">
          <mxGeometry y="297.2" width="295" height="27" as="geometry" />
        </mxCell>
        <mxCell id="7cS6nVsMlmjqD7m7EnYL-13" value="+time delivery_time" style="text;strokeColor=none;fillColor=none;align=left;verticalAlign=top;spacingLeft=4;spacingRight=4;overflow=hidden;rotatable=0;points=[[0,0.5],[1,0.5]];portConstraint=eastwest;fontSize=14;" vertex="1" parent="7cS6nVsMlmjqD7m7EnYL-1">
          <mxGeometry y="324.2" width="295" height="27" as="geometry" />
        </mxCell>
        <mxCell id="7cS6nVsMlmjqD7m7EnYL-14" value="+decimal total_price" style="text;strokeColor=none;fillColor=none;align=left;verticalAlign=top;spacingLeft=4;spacingRight=4;overflow=hidden;rotatable=0;points=[[0,0.5],[1,0.5]];portConstraint=eastwest;fontSize=14;" vertex="1" parent="7cS6nVsMlmjqD7m7EnYL-1">
          <mxGeometry y="351.2" width="295" height="27" as="geometry" />
        </mxCell>
        <mxCell id="7cS6nVsMlmjqD7m7EnYL-15" value="+bool agreement_accepted" style="text;strokeColor=none;fillColor=none;align=left;verticalAlign=top;spacingLeft=4;spacingRight=4;overflow=hidden;rotatable=0;points=[[0,0.5],[1,0.5]];portConstraint=eastwest;fontSize=14;" vertex="1" parent="7cS6nVsMlmjqD7m7EnYL-1">
          <mxGeometry y="378.2" width="295" height="27" as="geometry" />
        </mxCell>
        <mxCell id="7cS6nVsMlmjqD7m7EnYL-16" value="+timestamp created_at" style="text;strokeColor=none;fillColor=none;align=left;verticalAlign=top;spacingLeft=4;spacingRight=4;overflow=hidden;rotatable=0;points=[[0,0.5],[1,0.5]];portConstraint=eastwest;fontSize=14;" vertex="1" parent="7cS6nVsMlmjqD7m7EnYL-1">
          <mxGeometry y="405.2" width="295" height="27" as="geometry" />
        </mxCell>
        <mxCell id="7cS6nVsMlmjqD7m7EnYL-17" value="+timestamp updated_at" style="text;strokeColor=none;fillColor=none;align=left;verticalAlign=top;spacingLeft=4;spacingRight=4;overflow=hidden;rotatable=0;points=[[0,0.5],[1,0.5]];portConstraint=eastwest;fontSize=14;" vertex="1" parent="7cS6nVsMlmjqD7m7EnYL-1">
          <mxGeometry y="432.2" width="295" height="27" as="geometry" />
        </mxCell>
        <mxCell id="7cS6nVsMlmjqD7m7EnYL-18" style="line;strokeWidth=1;fillColor=none;align=left;verticalAlign=middle;spacingTop=-1;spacingLeft=3;spacingRight=3;rotatable=0;labelPosition=right;points=[];portConstraint=eastwest;strokeColor=inherit;fontSize=14;" vertex="1" parent="7cS6nVsMlmjqD7m7EnYL-1">
          <mxGeometry y="459.2" width="295" height="8" as="geometry" />
        </mxCell>
        <mxCell id="7cS6nVsMlmjqD7m7EnYL-19" value="+enum id_card_type(KTP/SIM/KTM)" style="text;strokeColor=none;fillColor=none;align=left;verticalAlign=top;spacingLeft=4;spacingRight=4;overflow=hidden;rotatable=0;points=[[0,0.5],[1,0.5]];portConstraint=eastwest;fontSize=14;" vertex="1" parent="7cS6nVsMlmjqD7m7EnYL-1">
          <mxGeometry y="467.2" width="295" height="27" as="geometry" />
        </mxCell>
        <mxCell id="7cS6nVsMlmjqD7m7EnYL-20" value="+enum duration_type(12_jam/24_jam)" style="text;strokeColor=none;fillColor=none;align=left;verticalAlign=top;spacingLeft=4;spacingRight=4;overflow=hidden;rotatable=0;points=[[0,0.5],[1,0.5]];portConstraint=eastwest;fontSize=14;" vertex="1" parent="7cS6nVsMlmjqD7m7EnYL-1">
          <mxGeometry y="494.2" width="295" height="27" as="geometry" />
        </mxCell>
        <mxCell id="7cS6nVsMlmjqD7m7EnYL-21" value="+enum delivery_method(antar/jemput)" style="text;strokeColor=none;fillColor=none;align=left;verticalAlign=top;spacingLeft=4;spacingRight=4;overflow=hidden;rotatable=0;points=[[0,0.5],[1,0.5]];portConstraint=eastwest;fontSize=14;" vertex="1" parent="7cS6nVsMlmjqD7m7EnYL-1">
          <mxGeometry y="521.2" width="295" height="27" as="geometry" />
        </mxCell>
        <mxCell id="7cS6nVsMlmjqD7m7EnYL-22" value="Rental_Unit" style="swimlane;fontStyle=1;align=center;verticalAlign=top;childLayout=stackLayout;horizontal=1;startSize=34.666666666666664;horizontalStack=0;resizeParent=1;resizeParentMax=0;resizeLast=0;collapsible=0;marginBottom=0;fontSize=14;" vertex="1" parent="1">
          <mxGeometry x="20" y="675" width="298" height="217.66666666666666" as="geometry" />
        </mxCell>
        <mxCell id="7cS6nVsMlmjqD7m7EnYL-23" value="+int id" style="text;strokeColor=none;fillColor=none;align=left;verticalAlign=top;spacingLeft=4;spacingRight=4;overflow=hidden;rotatable=0;points=[[0,0.5],[1,0.5]];portConstraint=eastwest;fontSize=14;" vertex="1" parent="7cS6nVsMlmjqD7m7EnYL-22">
          <mxGeometry y="34.666666666666664" width="298" height="35" as="geometry" />
        </mxCell>
        <mxCell id="7cS6nVsMlmjqD7m7EnYL-24" value="+int rental_id" style="text;strokeColor=none;fillColor=none;align=left;verticalAlign=top;spacingLeft=4;spacingRight=4;overflow=hidden;rotatable=0;points=[[0,0.5],[1,0.5]];portConstraint=eastwest;fontSize=14;" vertex="1" parent="7cS6nVsMlmjqD7m7EnYL-22">
          <mxGeometry y="69.66666666666666" width="298" height="35" as="geometry" />
        </mxCell>
        <mxCell id="7cS6nVsMlmjqD7m7EnYL-25" value="+int quantity" style="text;strokeColor=none;fillColor=none;align=left;verticalAlign=top;spacingLeft=4;spacingRight=4;overflow=hidden;rotatable=0;points=[[0,0.5],[1,0.5]];portConstraint=eastwest;fontSize=14;" vertex="1" parent="7cS6nVsMlmjqD7m7EnYL-22">
          <mxGeometry y="104.66666666666666" width="298" height="35" as="geometry" />
        </mxCell>
        <mxCell id="7cS6nVsMlmjqD7m7EnYL-26" style="line;strokeWidth=1;fillColor=none;align=left;verticalAlign=middle;spacingTop=-1;spacingLeft=3;spacingRight=3;rotatable=0;labelPosition=right;points=[];portConstraint=eastwest;strokeColor=inherit;fontSize=14;" vertex="1" parent="7cS6nVsMlmjqD7m7EnYL-22">
          <mxGeometry y="139.66666666666666" width="298" height="8" as="geometry" />
        </mxCell>
        <mxCell id="7cS6nVsMlmjqD7m7EnYL-27" value="+enum type(ORI/HEN)" style="text;strokeColor=none;fillColor=none;align=left;verticalAlign=top;spacingLeft=4;spacingRight=4;overflow=hidden;rotatable=0;points=[[0,0.5],[1,0.5]];portConstraint=eastwest;fontSize=14;" vertex="1" parent="7cS6nVsMlmjqD7m7EnYL-22">
          <mxGeometry y="147.66666666666666" width="298" height="35" as="geometry" />
        </mxCell>
        <mxCell id="7cS6nVsMlmjqD7m7EnYL-28" value="+enum model(PS2/PS3/PS4/PS5)" style="text;strokeColor=none;fillColor=none;align=left;verticalAlign=top;spacingLeft=4;spacingRight=4;overflow=hidden;rotatable=0;points=[[0,0.5],[1,0.5]];portConstraint=eastwest;fontSize=14;" vertex="1" parent="7cS6nVsMlmjqD7m7EnYL-22">
          <mxGeometry y="182.66666666666666" width="298" height="35" as="geometry" />
        </mxCell>
        <mxCell id="7cS6nVsMlmjqD7m7EnYL-29" value="Rental_TV" style="swimlane;fontStyle=1;align=center;verticalAlign=top;childLayout=stackLayout;horizontal=1;startSize=36.8;horizontalStack=0;resizeParent=1;resizeParentMax=0;resizeLast=0;collapsible=0;marginBottom=0;fontSize=14;" vertex="1" parent="1">
          <mxGeometry x="368" y="675" width="290" height="192.8" as="geometry" />
        </mxCell>
        <mxCell id="7cS6nVsMlmjqD7m7EnYL-30" value="+int id" style="text;strokeColor=none;fillColor=none;align=left;verticalAlign=top;spacingLeft=4;spacingRight=4;overflow=hidden;rotatable=0;points=[[0,0.5],[1,0.5]];portConstraint=eastwest;fontSize=14;" vertex="1" parent="7cS6nVsMlmjqD7m7EnYL-29">
          <mxGeometry y="36.8" width="290" height="37" as="geometry" />
        </mxCell>
        <mxCell id="7cS6nVsMlmjqD7m7EnYL-31" value="+int rental_id" style="text;strokeColor=none;fillColor=none;align=left;verticalAlign=top;spacingLeft=4;spacingRight=4;overflow=hidden;rotatable=0;points=[[0,0.5],[1,0.5]];portConstraint=eastwest;fontSize=14;" vertex="1" parent="7cS6nVsMlmjqD7m7EnYL-29">
          <mxGeometry y="73.8" width="290" height="37" as="geometry" />
        </mxCell>
        <mxCell id="7cS6nVsMlmjqD7m7EnYL-32" value="+int quantity" style="text;strokeColor=none;fillColor=none;align=left;verticalAlign=top;spacingLeft=4;spacingRight=4;overflow=hidden;rotatable=0;points=[[0,0.5],[1,0.5]];portConstraint=eastwest;fontSize=14;" vertex="1" parent="7cS6nVsMlmjqD7m7EnYL-29">
          <mxGeometry y="110.8" width="290" height="37" as="geometry" />
        </mxCell>
        <mxCell id="7cS6nVsMlmjqD7m7EnYL-33" style="line;strokeWidth=1;fillColor=none;align=left;verticalAlign=middle;spacingTop=-1;spacingLeft=3;spacingRight=3;rotatable=0;labelPosition=right;points=[];portConstraint=eastwest;strokeColor=inherit;fontSize=14;" vertex="1" parent="7cS6nVsMlmjqD7m7EnYL-29">
          <mxGeometry y="147.8" width="290" height="8" as="geometry" />
        </mxCell>
        <mxCell id="7cS6nVsMlmjqD7m7EnYL-34" value="+enum tv_type(24&quot;/32&quot;/40&quot;/43&quot;)" style="text;strokeColor=none;fillColor=none;align=left;verticalAlign=top;spacingLeft=4;spacingRight=4;overflow=hidden;rotatable=0;points=[[0,0.5],[1,0.5]];portConstraint=eastwest;fontSize=14;" vertex="1" parent="7cS6nVsMlmjqD7m7EnYL-29">
          <mxGeometry y="155.8" width="290" height="37" as="geometry" />
        </mxCell>
        <mxCell id="7cS6nVsMlmjqD7m7EnYL-35" value="Pricing" style="swimlane;fontStyle=1;align=center;verticalAlign=top;childLayout=stackLayout;horizontal=1;startSize=34.666666666666664;horizontalStack=0;resizeParent=1;resizeParentMax=0;resizeLast=0;collapsible=0;marginBottom=0;fontSize=14;" vertex="1" parent="1">
          <mxGeometry x="556" y="250" width="254" height="217.66666666666666" as="geometry" />
        </mxCell>
        <mxCell id="7cS6nVsMlmjqD7m7EnYL-36" value="+int id" style="text;strokeColor=none;fillColor=none;align=left;verticalAlign=top;spacingLeft=4;spacingRight=4;overflow=hidden;rotatable=0;points=[[0,0.5],[1,0.5]];portConstraint=eastwest;fontSize=14;" vertex="1" parent="7cS6nVsMlmjqD7m7EnYL-35">
          <mxGeometry y="34.666666666666664" width="254" height="35" as="geometry" />
        </mxCell>
        <mxCell id="7cS6nVsMlmjqD7m7EnYL-37" value="+decimal price" style="text;strokeColor=none;fillColor=none;align=left;verticalAlign=top;spacingLeft=4;spacingRight=4;overflow=hidden;rotatable=0;points=[[0,0.5],[1,0.5]];portConstraint=eastwest;fontSize=14;" vertex="1" parent="7cS6nVsMlmjqD7m7EnYL-35">
          <mxGeometry y="69.66666666666666" width="254" height="35" as="geometry" />
        </mxCell>
        <mxCell id="7cS6nVsMlmjqD7m7EnYL-38" value="+timestamp created_at" style="text;strokeColor=none;fillColor=none;align=left;verticalAlign=top;spacingLeft=4;spacingRight=4;overflow=hidden;rotatable=0;points=[[0,0.5],[1,0.5]];portConstraint=eastwest;fontSize=14;" vertex="1" parent="7cS6nVsMlmjqD7m7EnYL-35">
          <mxGeometry y="104.66666666666666" width="254" height="35" as="geometry" />
        </mxCell>
        <mxCell id="7cS6nVsMlmjqD7m7EnYL-39" style="line;strokeWidth=1;fillColor=none;align=left;verticalAlign=middle;spacingTop=-1;spacingLeft=3;spacingRight=3;rotatable=0;labelPosition=right;points=[];portConstraint=eastwest;strokeColor=inherit;fontSize=14;" vertex="1" parent="7cS6nVsMlmjqD7m7EnYL-35">
          <mxGeometry y="139.66666666666666" width="254" height="8" as="geometry" />
        </mxCell>
        <mxCell id="7cS6nVsMlmjqD7m7EnYL-40" value="+enum item_type(PSONLY/PSBOX/TV)" style="text;strokeColor=none;fillColor=none;align=left;verticalAlign=top;spacingLeft=4;spacingRight=4;overflow=hidden;rotatable=0;points=[[0,0.5],[1,0.5]];portConstraint=eastwest;fontSize=14;" vertex="1" parent="7cS6nVsMlmjqD7m7EnYL-35">
          <mxGeometry y="147.66666666666666" width="254" height="35" as="geometry" />
        </mxCell>
        <mxCell id="7cS6nVsMlmjqD7m7EnYL-41" value="+enum duration(optional)" style="text;strokeColor=none;fillColor=none;align=left;verticalAlign=top;spacingLeft=4;spacingRight=4;overflow=hidden;rotatable=0;points=[[0,0.5],[1,0.5]];portConstraint=eastwest;fontSize=14;" vertex="1" parent="7cS6nVsMlmjqD7m7EnYL-35">
          <mxGeometry y="182.66666666666666" width="254" height="35" as="geometry" />
        </mxCell>
        <mxCell id="7cS6nVsMlmjqD7m7EnYL-42" value="has" style="curved=1;startArrow=none;endArrow=open;endSize=12;exitX=0.04;exitY=1;entryX=0.5;entryY=0;rounded=0;fontSize=14;" edge="1" parent="1" source="7cS6nVsMlmjqD7m7EnYL-1" target="7cS6nVsMlmjqD7m7EnYL-22">
          <mxGeometry relative="1" as="geometry">
            <Array as="points">
              <mxPoint x="169" y="639" />
            </Array>
          </mxGeometry>
        </mxCell>
        <mxCell id="7cS6nVsMlmjqD7m7EnYL-43" value="1" style="edgeLabel;resizable=0;labelBackgroundColor=none;fontSize=14;align=right;verticalAlign=top;" vertex="1" parent="7cS6nVsMlmjqD7m7EnYL-42">
          <mxGeometry x="-1" relative="1" as="geometry" />
        </mxCell>
        <mxCell id="7cS6nVsMlmjqD7m7EnYL-44" value="many" style="edgeLabel;resizable=0;labelBackgroundColor=none;fontSize=14;align=left;verticalAlign=bottom;" vertex="1" parent="7cS6nVsMlmjqD7m7EnYL-42">
          <mxGeometry x="1" relative="1" as="geometry" />
        </mxCell>
        <mxCell id="7cS6nVsMlmjqD7m7EnYL-45" value="has" style="curved=1;startArrow=none;endArrow=open;endSize=12;exitX=0.96;exitY=1;entryX=0.5;entryY=0;rounded=0;fontSize=14;" edge="1" parent="1" source="7cS6nVsMlmjqD7m7EnYL-1" target="7cS6nVsMlmjqD7m7EnYL-29">
          <mxGeometry relative="1" as="geometry">
            <Array as="points">
              <mxPoint x="513" y="639" />
            </Array>
          </mxGeometry>
        </mxCell>
        <mxCell id="7cS6nVsMlmjqD7m7EnYL-46" value="1" style="edgeLabel;resizable=0;labelBackgroundColor=none;fontSize=14;align=right;verticalAlign=top;" vertex="1" parent="7cS6nVsMlmjqD7m7EnYL-45">
          <mxGeometry x="-1" relative="1" as="geometry" />
        </mxCell>
        <mxCell id="7cS6nVsMlmjqD7m7EnYL-47" value="many" style="edgeLabel;resizable=0;labelBackgroundColor=none;fontSize=14;align=left;verticalAlign=bottom;" vertex="1" parent="7cS6nVsMlmjqD7m7EnYL-45">
          <mxGeometry x="1" relative="1" as="geometry" />
        </mxCell>
      </root>
    </mxGraphModel>
  </diagram>
</mxfile>
